<?xml version="1.0"?>
<svg xmlns="http://www.w3.org/2000/svg" xmlns:xlink="http://www.w3.org/1999/xlink" version="1.1" xml:space="preserve">
  <defs>
    <symbol id="email" width="100%" height="100%" viewBox="0 0 56 56" fill="none">
      <path d="M4.66675 28.0002C4.66675 19.2006 4.66675 14.8008 7.40042 12.0672C10.1341 9.3335 14.5339 9.3335 23.3334 9.3335H32.6667C41.4663 9.3335 45.8661 9.3335 48.5997 12.0672C51.3334 14.8008 51.3334 19.2006 51.3334 28.0002C51.3334 36.7997 51.3334 41.1995 48.5997 43.9332C45.8661 46.6668 41.4663 46.6668 32.6667 46.6668H23.3334C14.5339 46.6668 10.1341 46.6668 7.40042 43.9332C4.66675 41.1995 4.66675 36.7997 4.66675 28.0002Z" stroke="currentColor" stroke-width="2" />
      <path d="M14 18.6665L19.0374 22.8644C23.3229 26.4356 25.4657 28.2212 28 28.2212C30.5343 28.2212 32.6771 26.4356 36.9626 22.8644L42 18.6665" stroke="currentColor" stroke-width="2" stroke-linecap="round" />

    </symbol>
    <symbol id="phone" width="100%" height="100%" viewBox="0 0 56 56" fill="none">
      <path d="M31.5001 4.66699C31.5001 4.66699 36.9448 5.16197 43.8745 12.0916C50.8041 19.0213 51.2991 24.466 51.2991 24.466" stroke="currentColor" stroke-width="2" stroke-linecap="round" />
      <path d="M33.1498 12.9165C33.1498 12.9165 35.4597 13.5765 38.9245 17.0413C42.3893 20.5061 43.0493 22.816 43.0493 22.816" stroke="currentColor" stroke-width="2" stroke-linecap="round" />
      <path d="M35.235 35.0635L34.5099 34.3748L35.235 35.0635ZM36.2977 33.9446L37.0228 34.6333L36.2977 33.9446ZM41.9366 33.1621L41.4377 34.0288L41.9366 33.1621ZM46.3944 35.728L45.8956 36.5946L46.3944 35.728ZM47.6506 43.7697L48.3756 44.4584L47.6506 43.7697ZM44.336 47.2593L43.6109 46.5707L44.336 47.2593ZM41.2446 48.9139L41.3429 49.9091L41.2446 48.9139ZM18.2358 38.4421L18.9609 37.7534L18.2358 38.4421ZM7.00674 16.2539L6.00817 16.3074L6.00818 16.3074L7.00674 16.2539ZM22.1142 19.8406L22.8393 20.5293L22.1142 19.8406ZM22.4799 13.2839L23.2964 12.7066L22.4799 13.2839ZM19.5376 9.12244L18.7211 9.69975V9.69975L19.5376 9.12244ZM12.2767 8.42016L13.0018 9.10885L12.2767 8.42016ZM8.61431 12.276L7.88926 11.5873L7.88926 11.5873L8.61431 12.276ZM25.8139 30.4638L26.539 29.7751L25.8139 30.4638ZM35.9601 35.7522L37.0228 34.6333L35.5727 33.256L34.5099 34.3748L35.9601 35.7522ZM41.4377 34.0288L45.8956 36.5946L46.8933 34.8613L42.4354 32.2954L41.4377 34.0288ZM46.9255 43.081L43.6109 46.5707L45.061 47.948L48.3756 44.4584L46.9255 43.081ZM41.1464 47.9187C37.6036 48.2684 28.6266 47.9296 18.9609 37.7534L17.5108 39.1308C27.6634 49.8196 37.2816 50.3099 41.3429 49.9091L41.1464 47.9187ZM18.9609 37.7534C9.78809 28.0962 8.2035 19.8929 8.0053 16.2003L6.00818 16.3074C6.23066 20.4526 7.99525 29.1127 17.5108 39.1308L18.9609 37.7534ZM22.17 21.2339L22.8393 20.5293L21.3892 19.1519L20.7199 19.8565L22.17 21.2339ZM23.2964 12.7066L20.3541 8.54512L18.7211 9.69975L21.6634 13.8612L23.2964 12.7066ZM11.5517 7.73148L7.88926 11.5873L9.33937 12.9647L13.0018 9.10885L11.5517 7.73148ZM21.445 20.5452C20.7199 19.8565 20.719 19.8575 20.7181 19.8585C20.7177 19.8588 20.7168 19.8598 20.7161 19.8605C20.7148 19.8619 20.7135 19.8633 20.7121 19.8648C20.7094 19.8678 20.7065 19.8709 20.7034 19.8743C20.6973 19.881 20.6906 19.8885 20.6834 19.8968C20.669 19.9134 20.6524 19.9332 20.6341 19.9562C20.5976 20.0024 20.5543 20.0617 20.5076 20.1346C20.414 20.2809 20.3076 20.4811 20.2159 20.7389C20.0303 21.2604 19.9163 21.9849 20.0544 22.9273C20.3274 24.7906 21.5749 27.4529 25.0889 31.1525L26.539 29.7751C23.158 26.2155 22.221 23.9185 22.0333 22.6373C21.941 22.0074 22.0276 21.6133 22.1001 21.4094C22.1375 21.3044 22.1746 21.2402 22.1922 21.2126C22.2011 21.1987 22.2053 21.1938 22.2024 21.1974C22.201 21.1992 22.1978 21.2032 22.1925 21.2093C22.1898 21.2123 22.1867 21.2159 22.1829 21.22C22.1811 21.222 22.1791 21.2242 22.1769 21.2265C22.1758 21.2277 22.1747 21.2289 22.1736 21.2301C22.173 21.2307 22.1721 21.2317 22.1718 21.232C22.1709 21.2329 22.17 21.2339 21.445 20.5452ZM25.0889 31.1525C28.5969 34.8457 31.1398 36.1789 32.9498 36.4729C33.8702 36.6223 34.5838 36.4992 35.0995 36.2958C35.3532 36.1958 35.5493 36.0801 35.6915 35.9792C35.7625 35.9289 35.8199 35.8823 35.8644 35.8433C35.8866 35.8238 35.9057 35.8062 35.9216 35.7908C35.9295 35.7832 35.9367 35.7761 35.9431 35.7696C35.9463 35.7664 35.9493 35.7633 35.9522 35.7604C35.9536 35.7589 35.9549 35.7575 35.9563 35.7561C35.9569 35.7555 35.9579 35.7545 35.9582 35.7541C35.9591 35.7531 35.9601 35.7522 35.235 35.0635C34.5099 34.3748 34.5109 34.3738 34.5118 34.3729C34.512 34.3726 34.5129 34.3716 34.5135 34.371C34.5147 34.3698 34.5158 34.3687 34.5169 34.3675C34.5191 34.3653 34.5212 34.3631 34.5232 34.3611C34.5271 34.3572 34.5305 34.3538 34.5335 34.3509C34.5394 34.3452 34.5434 34.3416 34.5455 34.3398C34.5496 34.3362 34.546 34.3397 34.5345 34.3479C34.5116 34.3641 34.4565 34.3995 34.3657 34.4353C34.1922 34.5037 33.8434 34.5918 33.2704 34.4987C32.0937 34.3076 29.926 33.341 26.539 29.7751L25.0889 31.1525ZM20.3541 8.54512C18.2397 5.55457 14.0611 5.08953 11.5517 7.73148L13.0018 9.10885C14.5734 7.45423 17.275 7.65443 18.7211 9.69975L20.3541 8.54512ZM8.0053 16.2003C7.94149 15.0114 8.4639 13.8864 9.33937 12.9647L7.88926 11.5873C6.74117 12.796 5.90755 14.4327 6.00817 16.3074L8.0053 16.2003ZM43.6109 46.5707C42.8776 47.3426 42.0401 47.8305 41.1464 47.9187L41.3429 49.9091C42.8543 49.7599 44.1087 48.9507 45.061 47.948L43.6109 46.5707ZM22.8393 20.5293C24.8359 18.4272 24.9938 15.1073 23.2964 12.7066L21.6634 13.8612C22.8427 15.5292 22.6898 17.7826 21.3892 19.1519L22.8393 20.5293ZM45.8956 36.5946C48.2169 37.9308 48.7015 41.2113 46.9255 43.081L48.3756 44.4584C51.0745 41.617 50.2974 36.8206 46.8933 34.8613L45.8956 36.5946ZM37.0228 34.6333C38.1663 33.4294 39.9486 33.1716 41.4377 34.0288L42.4354 32.2954C40.1652 30.9887 37.3673 31.3665 35.5727 33.256L37.0228 34.6333Z" fill="currentColor" />

    </symbol>
    <symbol id="menu" width="100%" height="100%" viewBox="0 0 20 18">
      <path fill-rule="evenodd" clip-rule="evenodd" d="M0.199951 2.0001C0.199951 1.2269 0.826752 0.600098 1.59995 0.600098H18.4C19.1732 0.600098 19.8 1.2269 19.8 2.0001C19.8 2.7733 19.1732 3.4001 18.4 3.4001H1.59995C0.826752 3.4001 0.199951 2.7733 0.199951 2.0001Z" fill="currentColor" />
      <path fill-rule="evenodd" clip-rule="evenodd" d="M0.199951 9.0001C0.199951 8.2269 0.826752 7.6001 1.59995 7.6001H18.4C19.1732 7.6001 19.8 8.2269 19.8 9.0001C19.8 9.7733 19.1732 10.4001 18.4 10.4001H1.59995C0.826752 10.4001 0.199951 9.7733 0.199951 9.0001Z" fill="currentColor" />
      <path fill-rule="evenodd" clip-rule="evenodd" d="M0.199951 16.0001C0.199951 15.2269 0.826752 14.6001 1.59995 14.6001H18.4C19.1732 14.6001 19.8 15.2269 19.8 16.0001C19.8 16.7733 19.1732 17.4001 18.4 17.4001H1.59995C0.826752 17.4001 0.199951 16.7733 0.199951 16.0001Z" fill="currentColor" />
    </symbol>
    <symbol id="arrow-right" width="100%" height="100%" viewBox="0 0 20 20">
      <path fill-rule="evenodd" clip-rule="evenodd" d="M11.2248 4.55806C11.4688 4.31398 11.8646 4.31398 12.1086 4.55806L17.1086 9.55806C17.3527 9.80214 17.3527 10.1979 17.1086 10.4419L12.1086 15.4419C11.8646 15.686 11.4688 15.686 11.2248 15.4419C10.9807 15.1979 10.9807 14.8021 11.2248 14.5581L15.1578 10.625H3.33337C2.9882 10.625 2.70837 10.3452 2.70837 10C2.70837 9.65482 2.9882 9.375 3.33337 9.375H15.1578L11.2248 5.44194C10.9807 5.19786 10.9807 4.80214 11.2248 4.55806Z" fill="currentColor" />

    </symbol>
    <symbol id="arrow-right-alt" width="100%" height="100%" viewBox="0 0 32 19">
      <path fill-rule="evenodd" clip-rule="evenodd" d="M26.4833 9.93584H0V8.61106H26.4626C25.5887 8.19476 24.8301 7.67809 24.1629 7.05973C22.3987 5.42479 21.3458 3.14178 20.4255 0.361747L21.564 0C22.4707 2.73915 23.449 4.784 24.9854 6.2079C26.3522 7.47476 28.2191 8.30143 31.0311 8.61106H32V8.69484V9.86484V9.93584H31.1493C28.2707 10.2349 26.3707 11.0641 24.9849 12.3459C23.4489 13.7666 22.4707 15.8081 21.564 18.5471L20.4255 18.1853C21.3459 15.4051 22.3989 13.1251 24.1633 11.4933C24.8357 10.8714 25.6009 10.3528 26.4833 9.93584Z" fill="currentColor" />

    </symbol>
    <symbol id="arrow-left" width="100%" height="100%" viewBox="0 0 15 10">
      <path d="M2 5L1.29289 4.29289L0.585786 5L1.29289 5.70711L2 5ZM14 6C14.5523 6 15 5.55228 15 5C15 4.44772 14.5523 4 14 4V6ZM5.29289 0.292893L1.29289 4.29289L2.70711 5.70711L6.70711 1.70711L5.29289 0.292893ZM1.29289 5.70711L5.29289 9.70711L6.70711 8.29289L2.70711 4.29289L1.29289 5.70711ZM2 6H14V4H2V6Z" fill="currentColor" />
    </symbol>
    <symbol id="arrow-left-alt" width="100%" height="100%" viewBox="0 0 32 19">
      <path fill-rule="evenodd" clip-rule="evenodd" d="M5.51674 9.93584H32V8.61106H5.53737C6.41131 8.19476 7.16994 7.67809 7.83714 7.05973C9.60126 5.42479 10.6542 3.14178 11.5745 0.361747L10.436 0C9.52926 2.73915 8.55097 4.784 7.01463 6.2079C5.64777 7.47476 3.78091 8.30143 0.968855 8.61106H0V8.69484V9.86484V9.93584H0.850685C3.72931 10.2349 5.62931 11.0641 7.01514 12.3459C8.55114 13.7666 9.52926 15.8081 10.436 18.5471L11.5745 18.1853C10.6541 15.4051 9.60108 13.1251 7.83674 11.4933C7.16428 10.8714 6.39908 10.3528 5.51674 9.93584Z" fill="currentColor" />

    </symbol>
    <symbol id="gal-ochka" width="100%" height="100%" viewBox="0 0 16 16">
      <path d="M4.344 13.704C4.344 13.56 4.328 13.496 4.264 13.496L3.896 13.672C3.896 13.592 3.848 13.544 3.768 13.512L3.64 13.496C3.528 13.496 3.48 13.512 3.32 13.608C3.272 13.512 3.208 13.4 3.16 13.304C2.744 12.504 2.312 11.304 2.12 10.776C2.024 10.504 1.928 9.944 1.816 9.096C1.944 9.176 2.04 9.208 2.088 9.208C2.152 9.208 2.232 9.096 2.296 8.872C2.328 8.92 2.392 8.936 2.472 8.936C2.52 8.936 2.584 8.92 2.616 8.872L2.872 8.488L3.16 8.584H3.176C3.208 8.584 3.256 8.536 3.336 8.488C3.416 8.44 3.48 8.408 3.528 8.408L3.576 8.424C3.832 8.552 4.008 8.776 4.088 9.128C4.28 9.944 4.456 10.344 4.664 10.344C4.84 10.344 5.08 10.136 5.336 9.736C5.592 9.336 5.848 8.792 6.136 8.136C6.152 8.264 6.168 8.328 6.2 8.328C6.296 8.328 6.536 7.768 7.128 6.824C8.008 5.4 10.184 2.664 10.744 2.28C11.16 1.992 11.48 1.72 11.704 1.48C11.672 1.64 11.64 1.752 11.64 1.8C11.64 1.848 11.672 1.864 11.704 1.864L12.152 1.64V1.704C12.152 1.784 12.168 1.832 12.216 1.832C12.28 1.832 12.536 1.576 12.568 1.48L12.536 1.704L13.08 1.384L12.952 1.672C13.112 1.56 13.24 1.496 13.32 1.496C13.4 1.496 13.448 1.624 13.448 1.704C13.448 1.832 13.336 2.008 13.16 2.232C12.968 2.488 12.488 2.984 11.048 4.632C10.424 5.336 7.656 9.096 7.128 9.992L6.136 11.672C5.704 12.392 5.432 12.856 5.288 13.032C5.144 13.208 4.968 13.384 4.76 13.544L4.616 13.464L4.488 13.544L4.344 13.704Z" fill="currentColor" />

    </symbol>
    <symbol id="to-right" width="100%" height="100%" viewBox="0 0 8 14">
      <path d="M5.63663 7.00019L1.15148 2.51504C0.7935 2.15706 0.7935 1.57666 1.15148 1.21868C1.50946 0.8607 2.08986 0.8607 2.44784 1.21868L7.58118 6.35201C7.93916 6.70999 7.93916 7.29039 7.58118 7.64838L2.44784 12.7817C2.08986 13.1397 1.50946 13.1397 1.15148 12.7817C0.7935 12.4237 0.7935 11.8433 1.15148 11.4853L5.63663 7.00019Z" fill="currentColor" />
    </symbol>
    <symbol id="to-left" width="100%" height="100%" viewBox="0 0 8 14">
      <path d="M2.36337 7.00019L6.84852 2.51504C7.2065 2.15706 7.2065 1.57666 6.84852 1.21868C6.49054 0.8607 5.91014 0.8607 5.55216 1.21868L0.418823 6.35201C0.0608425 6.70999 0.0608425 7.29039 0.418823 7.64838L5.55216 12.7817C5.91014 13.1397 6.49054 13.1397 6.84852 12.7817C7.2065 12.4237 7.2065 11.8433 6.84852 11.4853L2.36337 7.00019Z" fill="currentColor" />
    </symbol>
    <symbol id="play" width="100%" height="100%" viewBox="0 0 24 24">
      <path d="M19.5761 9.35258C21.4746 10.5065 21.4746 13.4935 19.5761 14.6474L8.11276 21.6145C6.26758 22.736 4 21.2763 4 18.9671L4 5.0329C4 2.72368 6.26758 1.26402 8.11276 2.38548L19.5761 9.35258Z" fill="currentColor" />
    </symbol>
    <symbol id="cross" width="100%" height="100%" viewBox="0 0 16 16">
      <path d="M1 15L15 1M1 1L15 15" fill="none" stroke="currentColor" stroke-width="2" stroke-linecap="round" stroke-linejoin="round" />
    </symbol>
    <symbol id="map-point" width="100%" height="100%" viewBox="0 0 24 24" fill="none">
      <path fill-rule="evenodd" clip-rule="evenodd" d="M12 2C7.58172 2 4 6.00258 4 10.5C4 14.9622 6.55332 19.8124 10.5371 21.6744C11.4657 22.1085 12.5343 22.1085 13.4629 21.6744C17.4467 19.8124 20 14.9622 20 10.5C20 6.00258 16.4183 2 12 2ZM12 12C13.1046 12 14 11.1046 14 10C14 8.89543 13.1046 8 12 8C10.8954 8 10 8.89543 10 10C10 11.1046 10.8954 12 12 12Z" fill="currentColor" />
    </symbol>
    <symbol id="wallet" width="100%" height="100%" viewBox="0 0 24 24" fill="none">
      <path d="M6 10H10" stroke="currentColor" stroke-width="1.5" stroke-linecap="round" stroke-linejoin="round" />
      <path d="M20.8333 11H18.2308C16.4465 11 15 12.3431 15 14C15 15.6569 16.4465 17 18.2308 17H20.8333C20.9167 17 20.9583 17 20.9935 16.9979C21.5328 16.965 21.9623 16.5662 21.9977 16.0654C22 16.0327 22 15.994 22 15.9167V12.0833C22 12.006 22 11.9673 21.9977 11.9346C21.9623 11.4338 21.5328 11.035 20.9935 11.0021C20.9583 11 20.9167 11 20.8333 11Z" stroke="currentColor" stroke-width="1.5" />
      <path d="M20.965 11C20.8873 9.1277 20.6366 7.97975 19.8284 7.17157C18.6569 6 16.7712 6 13 6H10C6.22876 6 4.34315 6 3.17157 7.17157C2 8.34315 2 10.2288 2 14C2 17.7712 2 19.6569 3.17157 20.8284C4.34315 22 6.22876 22 10 22H13C16.7712 22 18.6569 22 19.8284 20.8284C20.6366 20.0203 20.8873 18.8723 20.965 17" stroke="currentColor" stroke-width="1.5" />
      <path d="M6 6L9.73549 3.52313C10.7874 2.82562 12.2126 2.82562 13.2645 3.52313L17 6" stroke="currentColor" stroke-width="1.5" stroke-linecap="round" />
      <path d="M17.9912 14H18.0002" stroke="currentColor" stroke-width="2" stroke-linecap="round" stroke-linejoin="round" />

    </symbol>
    <symbol id="sale" width="100%" height="100%" viewBox="0 0 24 24" fill="none">
      <path d="M9.78133 3.89076C10.3452 3.41023 10.6271 3.16997 10.9219 3.02907C11.6037 2.7032 12.3963 2.7032 13.0781 3.02907C13.3729 3.16997 13.6548 3.41023 14.2187 3.89076C14.4431 4.08201 14.5553 4.17764 14.6752 4.25796C14.9499 4.44209 15.2584 4.56988 15.5828 4.63393C15.7244 4.66188 15.8713 4.6736 16.1653 4.69706C16.9038 4.75599 17.273 4.78546 17.5811 4.89427C18.2936 5.14594 18.8541 5.7064 19.1058 6.41893C19.2146 6.72699 19.244 7.09625 19.303 7.83475C19.3264 8.12868 19.3381 8.27564 19.3661 8.41718C19.4301 8.74163 19.5579 9.05014 19.7421 9.32485C19.8224 9.44469 19.918 9.55691 20.1093 9.78133C20.5898 10.3452 20.8301 10.6271 20.971 10.9219C21.2968 11.6037 21.2968 12.3963 20.971 13.0781C20.8301 13.3729 20.5898 13.6548 20.1093 14.2187C19.918 14.4431 19.8224 14.5553 19.7421 14.6752C19.5579 14.9499 19.4301 15.2584 19.3661 15.5828C19.3381 15.7244 19.3264 15.8713 19.303 16.1653C19.244 16.9038 19.2146 17.273 19.1058 17.5811C18.8541 18.2936 18.2936 18.8541 17.5811 19.1058C17.273 19.2146 16.9038 19.244 16.1653 19.303C15.8713 19.3264 15.7244 19.3381 15.5828 19.3661C15.2584 19.4301 14.9499 19.5579 14.6752 19.7421C14.5553 19.8224 14.4431 19.918 14.2187 20.1093C13.6548 20.5898 13.3729 20.8301 13.0781 20.971C12.3963 21.2968 11.6037 21.2968 10.9219 20.971C10.6271 20.8301 10.3452 20.5898 9.78133 20.1093C9.55691 19.918 9.44469 19.8224 9.32485 19.7421C9.05014 19.5579 8.74163 19.4301 8.41718 19.3661C8.27564 19.3381 8.12868 19.3264 7.83475 19.303C7.09625 19.244 6.72699 19.2146 6.41893 19.1058C5.7064 18.8541 5.14594 18.2936 4.89427 17.5811C4.78546 17.273 4.75599 16.9038 4.69706 16.1653C4.6736 15.8713 4.66188 15.7244 4.63393 15.5828C4.56988 15.2584 4.44209 14.9499 4.25796 14.6752C4.17764 14.5553 4.08201 14.4431 3.89076 14.2187C3.41023 13.6548 3.16997 13.3729 3.02907 13.0781C2.7032 12.3963 2.7032 11.6037 3.02907 10.9219C3.16997 10.6271 3.41023 10.3452 3.89076 9.78133C4.08201 9.55691 4.17764 9.4447 4.25796 9.32485C4.44209 9.05014 4.56988 8.74163 4.63393 8.41718C4.66188 8.27564 4.6736 8.12868 4.69706 7.83475C4.75599 7.09625 4.78546 6.72699 4.89427 6.41893C5.14594 5.7064 5.7064 5.14594 6.41893 4.89427C6.72699 4.78546 7.09625 4.75599 7.83475 4.69706C8.12868 4.6736 8.27564 4.66188 8.41718 4.63393C8.74163 4.56988 9.05014 4.44209 9.32485 4.25796C9.4447 4.17764 9.55691 4.08201 9.78133 3.89076Z" stroke="currentColor" stroke-width="1.5" />
      <path d="M9 15L15 9" stroke="currentColor" stroke-width="1.5" stroke-linecap="round" />
      <path d="M15.5 14.5C15.5 15.0523 15.0523 15.5 14.5 15.5C13.9477 15.5 13.5 15.0523 13.5 14.5C13.5 13.9477 13.9477 13.5 14.5 13.5C15.0523 13.5 15.5 13.9477 15.5 14.5Z" fill="currentColor" />
      <path d="M10.5 9.5C10.5 10.0523 10.0523 10.5 9.5 10.5C8.94772 10.5 8.5 10.0523 8.5 9.5C8.5 8.94772 8.94772 8.5 9.5 8.5C10.0523 8.5 10.5 8.94772 10.5 9.5Z" fill="currentColor" />

    </symbol>
    <symbol id="building" width="100%" height="100%" viewBox="0 0 24 24" fill="none">
      <path d="M22 22L2 22" stroke="currentColor" stroke-width="1.5" stroke-linecap="round" />
      <path d="M21 22V6C21 4.11438 21 3.17157 20.4143 2.58579C19.8285 2 18.8857 2 17 2H15C13.1144 2 12.1716 2 11.5858 2.58579C11.1143 3.05733 11.0223 3.76022 11.0044 5" stroke="currentColor" stroke-width="1.5" />
      <path d="M15 22V9C15 7.11438 15 6.17157 14.4142 5.58579C13.8284 5 12.8856 5 11 5H7C5.11438 5 4.17157 5 3.58579 5.58579C3 6.17157 3 7.11438 3 9V22" stroke="currentColor" stroke-width="1.5" />
      <path d="M9 22V19" stroke="currentColor" stroke-width="1.5" stroke-linecap="round" />
      <path d="M6 8H12" stroke="currentColor" stroke-width="1.5" stroke-linecap="round" />
      <path d="M6 11H12" stroke="currentColor" stroke-width="1.5" stroke-linecap="round" />
      <path d="M6 14H12" stroke="currentColor" stroke-width="1.5" stroke-linecap="round" />

    </symbol>
    <symbol id="like" width="100%" height="100%" viewBox="0 0 64 64" fill="none">
      <path d="M54.0523 43.3734L55.9337 32.494C56.4036 29.7767 54.314 27.2914 51.5594 27.2914H37.7431C36.3738 27.2914 35.3311 26.0623 35.5527 24.7094L37.3198 13.924C37.6069 12.1718 37.5249 10.3788 37.0791 8.66023C36.7098 7.23654 35.6114 6.09336 34.1668 5.6293L33.7802 5.50511C32.9072 5.22464 31.9543 5.28991 31.1312 5.68654C30.2252 6.12313 29.5623 6.91945 29.3167 7.86653L28.0481 12.7568C27.6445 14.3128 27.0566 15.8147 26.2985 17.2338C25.1909 19.3073 23.4784 20.9667 21.6983 22.5007L17.8617 25.8068C16.7799 26.739 16.2118 28.135 16.3349 29.5586L18.5007 54.6057C18.6994 56.9031 20.6202 58.6668 22.9236 58.6668H35.3199C44.6033 58.6668 52.5261 52.1985 54.0523 43.3734Z" fill="currentColor" />
      <path fill-rule="evenodd" clip-rule="evenodd" d="M7.91377 25.2934C8.98381 25.2472 9.9003 26.0522 9.99257 27.1192L12.5835 57.0833C12.7499 59.0081 11.2338 60.667 9.29788 60.667C7.47437 60.667 6 59.1877 6 57.3676V27.2915C6 26.2205 6.84374 25.3396 7.91377 25.2934Z" fill="currentColor" />

    </symbol>
    <symbol id="sad" width="100%" height="100%" viewBox="0 0 64 64" fill="none">

      <path fill-rule="evenodd" clip-rule="evenodd" d="M32 58.6668C46.7276 58.6668 58.6667 46.7278 58.6667 32.0002C58.6667 17.2726 46.7276 5.3335 32 5.3335C17.2724 5.3335 5.33337 17.2726 5.33337 32.0002C5.33337 46.7278 17.2724 58.6668 32 58.6668ZM40 32.0002C41.4728 32.0002 42.6667 30.2093 42.6667 28.0002C42.6667 25.791 41.4728 24.0002 40 24.0002C38.5273 24.0002 37.3334 25.791 37.3334 28.0002C37.3334 30.2093 38.5273 32.0002 40 32.0002ZM26.6667 28.0002C26.6667 30.2093 25.4728 32.0002 24 32.0002C22.5273 32.0002 21.3334 30.2093 21.3334 28.0002C21.3334 25.791 22.5273 24.0002 24 24.0002C25.4728 24.0002 26.6667 25.791 26.6667 28.0002ZM22.3933 46.5245C23.0511 47.4118 24.3036 47.598 25.191 46.9402C27.1332 45.5006 29.4776 44.6668 32 44.6668C34.5224 44.6668 36.8668 45.5006 38.8091 46.9402C39.6964 47.598 40.949 47.4118 41.6068 46.5245C42.2645 45.6371 42.0784 44.3845 41.191 43.7268C38.5979 41.8047 35.4266 40.6668 32 40.6668C28.5734 40.6668 25.4022 41.8047 22.8091 43.7268C21.9217 44.3845 21.7356 45.6371 22.3933 46.5245Z" fill="currentColor" />


    </symbol>
    <symbol id="circle-check" width="100%" height="100%" viewBox="0 0 24 24" fill="none">
      <circle cx="12" cy="12" r="10" stroke="currentColor" stroke-width="1.5" />
      <path d="M8.5 12.5L10.5 14.5L15.5 9.5" stroke="currentColor" stroke-width="1.5" stroke-linecap="round" stroke-linejoin="round" />

    </symbol>


    <!--  -->
    <!--  -->
    <!--  -->
  </defs>
</svg>